<?xml version="1.0" encoding="UTF-8"?>
<svg width="226px" height="317px" viewBox="0 0 226 317" version="1.1" xmlns="http://www.w3.org/2000/svg" xmlns:xlink="http://www.w3.org/1999/xlink">
    <!-- Generator: Sketch 55 (78076) - https://sketchapp.com -->
    <title>Launch 3</title>
    <desc>Created with Sketch.</desc>
    <g id="Illustration-kit" stroke="none" stroke-width="1" fill="none" fill-rule="evenodd">
        <g id="Presentation-Classic" transform="translate(-247.000000, -3854.000000)">
            <g id="Smth-Went-Wrong" transform="translate(247.000000, 3854.000000)">
                <g>
                    <g id="Flower" transform="translate(41.284028, 214.394198)">
                        <path d="M28.596261,62.0340429 C38.8611084,55.5026638 44.2406345,42.1392318 41.3602691,30.3240658 C47.0601888,35.8105694 47.4400321,45.1368999 44.3944779,52.4360629 C41.3489237,59.735226 35.5577871,65.4820415 29.9100562,71.0211516" id="Shape" fill="#008B44"></path>
                        <path d="M31.7815904,62.6821016 C39.2268835,58.3248255 44.0976827,50.6107053 47.484506,42.6807167 C50.8717831,34.7507282 53.0691566,26.3341288 56.7813655,18.5506223 C60.4935743,10.7675694 66.0732329,3.40264807 74.0009317,-4.26325641e-14 C67.8934859,6.08195565 67.1455984,15.4912775 65.2218755,23.8906438 C60.8017149,43.1895494 48.0613052,60.4358913 30.9075422,70.3408941" id="Shape" fill="#00A650"></path>
                        <path d="M32.7400482,65.3051745 C35.4597631,62.5696323 38.3296908,59.9842003 41.3339478,57.5647511 C48.7511044,51.5911831 57.0926827,46.5205436 62.958245,39.0195708 C67.2186627,33.5720687 69.9587992,27.0978312 73.8706867,21.3954592 C80.9869639,11.0201717 92.0659558,3.4330329 104.317153,0.544659514 C100.041305,2.61490987 96.882751,6.47786552 94.5537711,10.6156452 C92.2247912,14.7534249 90.5960482,19.243578 88.491253,23.499269 C82.929747,34.7407511 74.115747,44.1482589 64.1209197,51.7304092 C54.1260924,59.3130129 42.9404538,65.1736581 31.6095944,70.5612976" id="Shape" fill="#008B44"></path>
                        <path d="M33.1965863,67.9872031 C54.834498,50.2900773 86.2648353,43.7206037 113.892201,51.1199914 C100.542317,57.5194006 84.6365462,58.6694893 69.9578916,60.6059557 C55.2787831,62.542422 40.0337671,65.6566409 28.5681245,75.0178913" id="Shape" fill="#00A650"></path>
                        <path d="M36.3651245,71.3984678 C51.365988,63.6616724 67.3343855,69.7059871 65.6412008,84.9383133 C79.1898554,66.6566195 54.5109277,54.9575508 34.6714859,67.7717883" id="Shape" fill="#008B44"></path>
                        <polyline id="Shape" fill="#523B5D" points="21.1028635 61.045402 0 84.9383133 14.1658434 102.346557 43.9388474 86.8725122 21.1028635 61.045402"></polyline>
                        <polyline id="Shape" fill="#3F2C48" points="17.7319237 64.8621001 38.4540361 89.7227911 43.9388474 86.8725122 21.1028635 61.045402 17.7319237 64.8621001"></polyline>
                        <polyline id="Shape" fill="#523B5D" points="17.9774378 61.045402 24.751992 53.5067883 51.365988 86.3890758 43.9388474 92.1916724 17.9774378 61.045402"></polyline>
                        <path d="M-1.77635684e-15,84.9383133 L14.1658434,102.346557 C14.1658434,102.346557 13.9593574,89.169515 -1.77635684e-15,84.9383133" id="Shape" fill="#3F2C48"></path>
                        <path d="M54.8957631,75.4591516 C54.8957631,74.0179127 53.7262811,72.8492303 52.2840562,72.8492303 C50.8413775,72.8492303 49.6723494,74.0179127 49.6723494,75.4591516 C49.6723494,76.9003906 50.8413775,78.069073 52.2840562,78.069073 C53.7262811,78.069073 54.8957631,76.9003906 54.8957631,75.4591516" id="Shape" fill="#3A3B39"></path>
                        <path d="M46.5736988,72.3376767 C46.5736988,71.6107082 45.983739,71.0211516 45.2562731,71.0211516 C44.5288072,71.0211516 43.9388474,71.6107082 43.9388474,72.3376767 C43.9388474,73.0646452 44.5288072,73.6542017 45.2562731,73.6542017 C45.983739,73.6542017 46.5736988,73.0646452 46.5736988,72.3376767" id="Shape" fill="#3A3B39"></path>
                        <path d="M59.5922972,84.454877 C59.5922972,83.5202031 58.8339719,82.7623963 57.8986586,82.7623963 C56.9633454,82.7623963 56.2050201,83.5202031 56.2050201,84.454877 C56.2050201,85.3895508 56.9633454,86.1473577 57.8986586,86.1473577 C58.8339719,86.1473577 59.5922972,85.3895508 59.5922972,84.454877" id="Shape" fill="#3A3B39"></path>
                    </g>
                    <g id="Fries" transform="translate(178.291309, 0.000000)">
                        <polyline id="Shape" fill="#F56300" points="10.5525663 23.594664 13.4928353 14.6379401 15.8499518 15.8306583 12.1409197 24.7656139 10.5525663 23.594664"></polyline>
                        <path d="M8.2340241,22.7348185 C8.2340241,21.4808771 9.26327711,7.48661962 9.42528916,5.2930159 C9.43618072,5.14426626 9.58321687,5.0481232 9.72526104,5.09392721 L11.7760522,5.75377699 C11.8786145,5.78688286 11.9448715,5.88620045 11.9348876,5.99368114 L10.4050763,22.7348185 L8.2340241,22.7348185" id="Shape" fill="#F56300"></path>
                        <polyline id="Shape" fill="#F56300" points="6.27717269 22.0903879 3.60283936 14.675581 -1.77635684e-15 13.0638242 -1.77635684e-15 10.9686311 5.08863052 12.4189401 7.43304016 22.0903879 6.27717269 22.0903879"></polyline>
                        <path d="M18.3718032,25.0807999 L24.570012,12.0969515 L27.5996827,13.457013 C27.5996827,13.457013 20.900008,20.3267069 19.9474498,26.2408657 L18.3718032,25.0807999" id="Shape" fill="#F56300"></path>
                        <polyline id="Shape" fill="#FB9300" points="17.5635582 23.594664 20.5038273 14.6379401 22.8609438 15.8306583 19.1519116 24.7656139 17.5635582 23.594664"></polyline>
                        <polyline id="Shape" fill="#FB9300" points="9.27053815 22.7348185 11.6294699 10.9681776 13.5041807 10.9681776 11.3871325 23.3797026 9.27053815 22.7348185"></polyline>
                        <path d="M6.27717269,22.0903879 L6.27717269,9.65482706 C6.27717269,9.49020475 6.41059438,9.35642077 6.57578313,9.35642077 L8.29029719,9.35642077 C8.45548594,9.35642077 8.58890763,9.49020475 8.58890763,9.65482706 L8.58890763,22.735272 L6.27717269,22.0903879" id="Shape" fill="#FB9300"></path>
                        <path d="M17.2667631,21.4455037 L20.9767028,22.8962663 C20.9767028,22.8962663 19.0411807,32.831654 15.331241,34.3921647 C15.331241,34.3921647 13.2341606,29.5047412 17.2667631,21.4455037" id="Shape" fill="#7DB1A1"></path>
                        <path d="M5.08863052,21.4455037 C5.81428112,21.2845095 17.2667631,21.4455037 17.2667631,21.4455037 C17.2667631,21.4455037 14.8470201,28.1573779 15.331241,34.3921647 C15.331241,34.3921647 9.605,34.0706296 3.83836948,32.2711218 L5.08863052,21.4455037" id="Shape" fill="#B3E0D0"></path>
                        <path d="M16.3877229,5.00413322 L18.5878193,5.9714594 C18.5878193,5.9714594 19.1886707,12.9023764 17.9960442,16.0456196 L16.3877229,16.0456196 L16.3877229,5.00413322 Z" id="Shape" fill="#FB9300"></path>
                        <path d="M1.65143373,1.76656097 L3.93775502,7.70929058 C4.0294257,7.94783422 4.27221687,8.04805882 4.47098795,7.92878701 L5.42036948,7.35918472 C5.59236546,7.25623908 5.67405221,7.02177699 5.61369478,6.80681562 L3.77029719,0.277704031 C3.69814056,0.0214737016 3.43674297,-0.081471935 3.24750201,0.0718127574 L1.76987952,1.26634495 C1.63282731,1.37745367 1.58290763,1.5883335 1.65143373,1.76656097" id="Shape" fill="#FB9300"></path>
                        <path d="M21.2989116,9.35642077 C21.2989116,9.35642077 23.0733293,4.60142077 23.5570964,1.61962535 L26.4606064,1.61962535 L22.985743,9.920581 L21.2989116,9.35642077" id="Shape" fill="#FB9300"></path>
                    </g>
                    <g id="Woman" transform="translate(0.000000, 25.230003)">
                        <polyline id="Shape" fill="#B83D60" points="224.752916 71.2483577 222.494731 75.036485 187.251892 95.1780029 146.039566 84.546485 146.039566 74.7321831 224.752916 71.2483577"></polyline>
                        <polyline id="Shape" fill="#D6476F" points="145.636124 81.6449599 186.52488 92.7667167 224.752462 71.2483577 198.380349 65.2040429 135.95806 76.5675179 145.636124 81.6449599"></polyline>
                        <path d="M137.408454,10.8560029 C136.954185,10.2578298 136.392361,9.72178684 135.706193,9.41567096 C135.020024,9.10955508 134.197257,9.0569485 133.524703,9.39118169 C132.536293,9.88278112 132.081116,11.1135937 132.225884,12.2074478 C132.370197,13.3013019 133.001,14.2713491 133.716213,15.1116938 C134.65561,16.2159785 135.770181,17.1710601 137.005466,17.9302275 C137.28547,18.1025594 137.594064,18.2703562 137.922173,18.2481345 C138.041072,18.2399714 138.159064,18.1950744 138.258904,18.1270486 C139.286341,15.7846953 138.956418,12.8954149 137.408454,10.8560029" id="Shape" fill="#3F2C48"></path>
                        <path d="M138.189016,18.2907639 L138.268434,18.1206996 C138.265711,18.1229671 138.26208,18.1243276 138.259357,18.1265951 C138.235305,18.1810157 138.21443,18.2367969 138.189016,18.2907639" id="Shape" fill="#3F2C48"></path>
                        <path d="M138.268434,18.1211531 C138.439976,18.0005207 138.552976,17.8082346 138.50941,17.6068784 L138.268434,18.1211531" id="Shape" fill="#3F2C48"></path>
                        <path d="M138.771261,76.0555107 C138.771261,76.0555107 178.057141,85.996794 190.154494,80.4359156 C202.251847,74.8750372 217.010827,61.5769099 217.010827,61.5769099 C217.010827,61.5769099 188.931462,66.6543519 158.33206,55.7743133 C158.33206,55.7743133 155.556072,65.6874793 132.81312,73.9081645 L138.771261,76.0555107" id="Shape" fill="#F9B6A8"></path>
                        <path d="M172.013683,81.8172918 C172.013683,81.8172918 179.750779,81.1615236 184.831241,75.8423634 L190.154494,80.4359156 C190.154494,80.4359156 184.91202,83.7401531 172.013683,81.8172918" id="Shape" fill="#F58491"></path>
                        <path d="M134.264876,28.4529041 C134.264876,27.9467926 135.111241,27.5227654 136.256217,27.401226 C136.377839,26.8869514 136.442281,26.5459156 136.442281,26.5459156 L137.813257,25.7128269 C137.813257,25.7128269 136.764944,23.9396223 138.377803,19.6680587 C139.991116,15.3969485 136.119618,13.4622961 136.119618,13.4622961 L128.054867,11.7698155 L113.591321,34.3362246 L127.812984,37.4794678 L130.716494,31.9185894 C130.716494,31.9185894 131.603249,32.0795837 133.458446,32.3213019 C134.408735,32.4451087 135.167968,30.925867 135.683048,29.4147883 C134.839859,29.2320258 134.264876,28.8701288 134.264876,28.4529041" id="Shape" fill="#F9B6A8"></path>
                        <path d="M25.8729157,121.054999 C25.8729157,121.054999 18.468012,125.00412 41.2840281,149.504728 C64.100498,174.004883 99.6664538,176.66469 99.6664538,176.66469 C71.2045221,152.839804 35.7579197,119.457754 25.8729157,121.054999" id="Shape" fill="#0080A3"></path>
                        <path d="M10.5493896,115.010684 L0,115.010684 L7.32367068,119.846408 C7.68036948,125.913851 8.30708835,132.487406 9.17251406,139.097695 C11.6181245,137.920396 14.2434458,137.240139 16.945008,136.648315 C13.1438514,125.180987 10.5493896,115.010684 10.5493896,115.010684" id="Shape" fill="#D6476F"></path>
                        <path d="M40.9931325,142.171552 L27.6473333,162.077247 C23.7808273,155.780784 19.9792169,145.801406 16.945008,136.648315 C14.2438996,137.239685 11.6185783,137.919943 9.17251406,139.097242 C12.2148916,162.339373 18.2125141,186.036371 25.8729157,189.801369 C32.7895141,193.200843 51.7385703,172.866585 62.3868916,160.485445 C57.4135301,153.418476 49.5720562,147.727896 40.9931325,142.171552" id="Shape" fill="#F9B6A8"></path>
                        <path d="M49.2611928,129.839844 L40.9931325,142.171552 C47.4972129,149.50881 54.3706988,155.242927 62.3873454,160.485445 C62.7562972,160.055976 69.9070643,151.438927 69.9070643,151.438927 L49.2611928,129.839844" id="Shape" fill="#F58491"></path>
                        <path d="M31.1957149,275.230828 L40.5511165,284.257392 L37.3249438,274.908386 L51.3723414,255.820814 C48.7370361,253.922442 46.0558956,252.085293 43.4033454,250.209597 L31.1957149,275.230828" id="Shape" fill="#D6476F"></path>
                        <path d="M62.8098474,210.433579 L43.4033454,250.209597 C46.0558956,252.085293 48.7370361,253.922442 51.3723414,255.820814 L72.5060643,227.104877 C76.3090361,221.937187 79.6690843,216.45794 82.5499036,210.725637 L99.4962731,177.003004 C90.073253,173.46884 80.5989518,169.19002 70.7788434,166.271715 L62.8098474,210.433579" id="Shape" fill="#F9B6A8"></path>
                        <path d="M73.4554458,151.438927 L70.7788434,166.271715 C79.9554418,170.947352 89.5282209,174.957697 99.4962731,177.003004 L99.6664538,176.66469 L73.4554458,151.438927" id="Shape" fill="#F58491"></path>
                        <path d="M25.8729157,121.054999 C25.8729157,121.054999 48.1321004,106.306562 58.2939317,90.5907997 C68.4553092,74.8750372 92.4562369,36.6386695 106.199124,35.2228269 C119.942012,33.8069843 138.13592,35.7062632 145.152357,56.2577496 C152.168795,76.8092361 156.282177,100.503512 156.282177,100.503512 L181.444418,91.7993906 L183.37994,97.6024406 C183.37994,97.6024406 150.233273,123.956524 142.491185,103.888474 C134.748643,83.820877 131.119482,75.8419099 131.119482,75.8419099 C131.119482,75.8419099 131.845586,86.2385122 123.619277,88.172711 C123.619277,88.172711 110.55439,151.035761 99.6664538,176.66469 C57.5678273,160.223319 37.486502,125.890722 25.8729157,121.054999" id="Shape" fill="#00A5BE"></path>
                        <path d="M134.059751,7.69280544 C129.654112,5.32369528 123.711402,6.28240486 120.27602,9.91679399 C117.489594,12.86503 116.220727,17.3062046 112.675976,19.2798584 C109.860052,20.8476252 106.40788,20.3936667 103.209843,20.7945651 C97.6923574,21.4861602 92.5007108,25.176784 90.5933253,30.3966266 C88.6854859,35.6160157 90.5293373,42.1256266 95.2158876,45.1160386 C99.9024378,48.1069041 107.003739,46.7400401 109.812402,41.9442246 C110.833486,40.2004979 111.319068,38.1152818 112.707289,36.6463791 C115.117502,34.0972275 119.185502,34.3520973 122.458418,33.0868183 C126.579968,31.4936552 129.495277,27.8365908 129.257478,23.4271617 C128.468747,22.8371516 127.649157,22.2099542 127.237546,21.3156423 C126.825936,20.420877 126.987494,19.1805408 127.847928,18.7007325 C129.123602,17.8150372 130.756884,20.8975107 130.756884,20.8975107 C130.756884,20.8975107 132.327992,17.8649227 133.573715,16.8912475 C135.038631,15.7456938 136.843,14.6790501 137.252341,12.8659371 C137.732478,10.7403591 135.979843,8.72543634 134.059751,7.69280544" id="Shape" fill="#523B5D"></path>
                        <path d="M181.444418,91.7993906 C181.444418,91.7993906 186.28345,85.0294678 186.767217,85.3922718 C187.250984,85.7550758 185.678514,90.711432 185.678514,90.711432 L194.267422,87.4475565 C194.267422,87.4475565 194.509305,90.348628 192.453068,91.7993906 C190.396378,93.2501531 183.37994,97.6019871 183.37994,97.6019871 L181.444418,91.7993906" id="Shape" fill="#F9B6A8"></path>
                        <polyline id="Shape" fill="#F58491" points="27.6473333 162.077247 30.3225743 167.666697 31.1957149 156.784391 27.6473333 162.077247"></polyline>
                        <path d="M135.958514,21.0784592 C135.958514,20.6108956 135.579578,20.2322189 135.111695,20.2322189 C134.643811,20.2322189 134.264876,20.6108956 134.264876,21.0784592 C134.264876,21.5460229 134.643811,21.9246996 135.111695,21.9246996 C135.579578,21.9246996 135.958514,21.5460229 135.958514,21.0784592" id="Shape" fill="#3A3B39"></path>
                        <path d="M136.473594,19.8245179 C136.289799,19.8245179 136.138225,19.6780358 136.133687,19.4934592 C136.123703,19.113422 135.942177,18.8372375 135.647651,18.7546996 C135.329526,18.6662661 134.978273,18.8313419 134.75545,19.1769127 C134.653795,19.335186 134.442771,19.3805365 134.284843,19.2784979 C134.126916,19.1769127 134.081534,18.9664864 134.183189,18.8086667 C134.571655,18.206412 135.219249,17.9284134 135.830992,18.0998383 C136.41959,18.2644607 136.796257,18.7914335 136.813956,19.475319 C136.818948,19.6635236 136.67055,19.8195293 136.482671,19.8245179 C136.479948,19.8245179 136.476771,19.8245179 136.473594,19.8245179" id="Shape" fill="#3A3B39"></path>
                        <path d="M130.087506,22.46301 C130.004004,22.46301 129.923679,22.4167525 129.884197,22.3373891 C129.468956,21.5033934 128.825446,20.7718898 128.024008,20.2222418 C127.920538,20.151495 127.894217,20.0104549 127.965012,19.9070558 C128.035807,19.8036567 128.177851,19.7778069 128.280414,19.8485536 C129.145839,20.4412847 129.841084,21.2321974 130.290361,22.1351259 C130.346181,22.2471416 130.300345,22.3836466 130.188253,22.4394278 C130.156032,22.4553004 130.121542,22.46301 130.087506,22.46301" id="Shape" fill="#F58491"></path>
                        <polyline id="Shape" fill="#F58491" points="130.716494 31.9185894 128.152438 31.475515 130.087506 33.1235522 130.716494 31.9185894"></polyline>
                        <path d="M130.087052,24.0407539 C130.087052,23.506525 129.653659,23.0738813 129.119518,23.0738813 C128.584924,23.0738813 128.151984,23.506525 128.151984,24.0407539 C128.151984,24.5749828 128.584924,25.0076266 129.119518,25.0076266 C129.653659,25.0076266 130.087052,24.5749828 130.087052,24.0407539" id="Shape" fill="#FFFFFE"></path>
                        <polyline id="Shape" fill="#0080A3" points="156.281723 100.503512 157.007373 104.694352 158.331606 99.7946838 156.281723 100.503512"></polyline>
                        <polyline id="Shape" fill="#B3E0D0" points="151.456759 8.8817842e-16 152.196478 0.624476395 146.778831 7.03386266 146.039112 6.40938627 151.456759 8.8817842e-16"></polyline>
                        <polyline id="Shape" fill="#B3E0D0" points="158.044795 6.57899714 158.470928 7.45154077 149.233064 11.956206 148.806932 11.0841159 158.044795 6.57899714"></polyline>
                        <polyline id="Shape" fill="#B3E0D0" points="157.48751 17.1130114 157.522454 18.0826052 150.748353 18.3270443 150.712956 17.3579041 157.48751 17.1130114"></polyline>
                    </g>
                    <g id="Cup" transform="translate(169.176430, 50.019947)">
                        <polyline id="Shape" fill="#B3E0D0" points="17.8508233 6.65337196 17.8508233 27.5214049 7.43304016 29.3358784 1.90965462 11.320392 17.8508233 6.65337196"></polyline>
                        <path d="M2.71880723,12.0931645 C8.19771888,12.2205994 13.2536747,10.461907 17.8508233,6.65337196 C17.8508233,6.65337196 8.4691004,5.28469385 2.71880723,12.0931645" id="Shape" fill="#3A3B39"></path>
                        <polyline id="Shape" fill="#B3E0D0" points="1.24345382 11.9081345 1.77635684e-15 7.71185265 9.18794378 8.52651283e-14 12.5547992 1.92784979 1.24345382 11.9081345"></polyline>
                        <polyline id="Shape" fill="#7DB1A1" points="-3.55271368e-15 14.7434478 14.8660803 1.87977825 12.5543454 0 -3.55271368e-15 12.0931645 -3.55271368e-15 14.7434478"></polyline>
                        <path d="M3.21074297,16.3311688 C8.35564659,16.2935279 13.4247631,14.7434478 18.0781847,12.138515 L18.2293052,24.1777124 L6.06977912,26.3114535 L3.21074297,16.3311688" id="Shape" fill="#523B5D"></path>
                    </g>
                    <g id="Burger" transform="translate(204.751877, 44.755155)">
                        <path d="M19.6071275,10.3272684 C19.360252,10.2397419 19.0811556,10.2102641 18.8810231,10.0411067 C18.3931717,9.62932415 18.7444247,8.85655162 18.7857219,8.21983059 C18.8678625,6.94457451 17.5545211,6.03983202 16.3405653,5.63666607 C14.0279227,4.86888209 11.4534287,4.9146861 9.1689227,5.76410098 C8.53630422,5.99901657 7.90413956,6.31057451 7.48027611,6.83527981 C7.05595884,7.3599851 6.89258535,8.14409526 7.24610744,8.7186861 C7.48481426,9.10688639 7.99081828,9.29917251 8.42375804,9.22389068 C8.7763725,9.59440427 8.81630824,10.253347 8.77728013,10.8043556 C8.72917571,11.4796246 8.75186647,12.3149808 9.35317169,12.6265387 C10.4822641,13.2115602 11.6086335,11.0936918 12.8030753,11.5299636 C13.3086255,11.7149937 13.5396175,12.2791539 13.8055532,12.7476246 C14.0710351,13.2156418 14.5824849,13.6836589 15.0839508,13.4872913 C15.6357902,13.2705159 15.6811717,12.4333456 16.2016978,12.148998 C16.5765492,11.9440137 17.0507862,12.1131711 17.3938705,12.3680409 C17.736501,12.6229107 18.0201355,12.9616789 18.4017942,13.1535116 C19.1510432,13.5290137 20.18075,13.1521511 20.5097661,12.3811925 C20.8383283,11.6106875 20.3972199,10.607081 19.6071275,10.3272684" id="Shape" fill="#00A650"></path>
                        <path d="M5.32783033,4.17547294 C8.78771788,3.27209096 12.049742,4.28703517 12.6133805,6.44299797 C13.1774729,8.59896078 10.8294327,11.0791797 7.36954519,11.9825616 C3.90920382,12.8859436 0.64763354,11.8709994 0.0835411702,9.7150366 C-0.480097384,7.5590738 1.86794278,5.07885491 5.32783033,4.17547294" id="Shape" fill="#585755"></path>
                        <path d="M7.01829217,10.6397333 C3.9264488,11.4469722 0.998886552,10.7195502 0.00730020639,9.0175459 C0.0036696843,9.25200799 0.0236375558,9.48556307 0.0835411702,9.7150366 C0.64763354,11.8709994 3.90920382,12.8859436 7.36954519,11.9825616 C10.8294327,11.0787262 13.1774729,8.59896078 12.6133805,6.44299797 C12.5534769,6.21352444 12.4568143,5.99992358 12.3388223,5.79720684 C12.3070552,7.76632559 10.1101355,9.8324944 7.01829217,10.6397333" id="Shape" fill="#3A3B39"></path>
                        <path d="M0.175211853,13.5979465 C0.175211853,13.5979465 -1.8306516,20.8553871 7.73532029,21.9837076 C17.3008384,23.112028 18.2266215,16.6645473 18.2266215,16.6645473 L0.175211853,13.5979465" id="Shape" fill="#FB9300"></path>
                        <path d="M0.175211853,13.5979465 C0.175211853,13.5979465 6.50094278,17.9538621 18.2266215,16.6645473 C18.2266215,16.6645473 6.50094278,13.1104286 0.175211853,13.5979465" id="Shape" fill="#F56300"></path>
                        <path d="M2.2582239,4.51560169 C2.2582239,4.51560169 5.80660543,9.89507809 20.0010392,8.92775191 C22.094489,0.520222581 4.3516737,-3.89192763 2.2582239,4.51560169" id="Shape" fill="#FB9300"></path>
                    </g>
                </g>
            </g>
        </g>
    </g>
</svg>